<svg xmlns="http://www.w3.org/2000/svg" viewBox="0 0 100 100" width="100" height="100">
  <defs>
    <linearGradient id="bg" x1="0" y1="0" x2="1" y2="1">
      <stop offset="0%" stop-color="#1e5d8a"/>
      <stop offset="100%" stop-color="#0a3d5c"/>
    </linearGradient>
  </defs>
  <circle cx="50" cy="50" r="48" fill="url(#bg)" stroke="#2e8bc0" stroke-width="2"/>
  <g transform="translate(50,48)" fill="none" stroke="#fff" stroke-width="3" stroke-linecap="round">
    <path d="M-4,-12 C-12,-20 -20,-18 -22,-10 C-24,-2 -16,2 -8,0" stroke="#48cae4"/>
    <path d="M4,-12 C12,-20 20,-18 22,-10 C24,-2 16,2 8,0" stroke="#48cae4"/>
    <path d="M0,-8 L0,8 M-4,6 L4,6 M-4,2 L4,2 M-4,-2 L4,-2" stroke="#fff" stroke-width="2.5"/>
  </g>
  <path d="M20,42 L30,42 M70,42 L80,42" stroke="#2e8bc0" stroke-width="1.5" opacity="0.6"/>
  <path d="M38,58 C42,56 58,56 62,58 M32,62 C38,58 62,58 68,62" stroke="#fff" stroke-width="1.2" opacity="0.4"/>
</svg>
